<mxfile host="app.diagrams.net" modified="2023-05-30T12:25:20.080Z" agent="Mozilla/5.0 (Windows NT 10.0; Win64; x64) AppleWebKit/537.36 (KHTML, like Gecko) Chrome/113.0.0.0 Safari/537.36" etag="J2RdFWs0KXBIEXVghYEK" version="21.3.4" type="device">
  <diagram name="Pagina-1" id="yC-AG7X7mgxo6E1YD-5C">
    <mxGraphModel dx="2048" dy="751" grid="1" gridSize="10" guides="1" tooltips="1" connect="1" arrows="1" fold="1" page="1" pageScale="1" pageWidth="827" pageHeight="1169" math="0" shadow="0">
      <root>
        <mxCell id="0" />
        <mxCell id="1" parent="0" />
        <mxCell id="Kxxd0aBfSA8q7dgwN72d-8" value="" style="group" vertex="1" connectable="0" parent="1">
          <mxGeometry width="1000" height="1285" as="geometry" />
        </mxCell>
        <mxCell id="W23P32Y-80gLwB7u09Wh-1" value="Interface Layer" style="rounded=0;whiteSpace=wrap;html=1;fillColor=#f8cecc;strokeColor=#b85450;" parent="Kxxd0aBfSA8q7dgwN72d-8" vertex="1">
          <mxGeometry width="1000.0000000000001" height="360" as="geometry" />
        </mxCell>
        <mxCell id="W23P32Y-80gLwB7u09Wh-3" value="Infrastructure Layer" style="rounded=0;whiteSpace=wrap;html=1;fillColor=#fff2cc;strokeColor=#d6b656;" parent="Kxxd0aBfSA8q7dgwN72d-8" vertex="1">
          <mxGeometry y="845" width="1000.0000000000001" height="440" as="geometry" />
        </mxCell>
        <mxCell id="W23P32Y-80gLwB7u09Wh-2" value="Domain Layer" style="rounded=0;whiteSpace=wrap;html=1;fillColor=#dae8fc;strokeColor=#6c8ebf;" parent="Kxxd0aBfSA8q7dgwN72d-8" vertex="1">
          <mxGeometry y="355" width="1000.0000000000001" height="490" as="geometry" />
        </mxCell>
        <mxCell id="W23P32Y-80gLwB7u09Wh-28" value="Observer&lt;br&gt;&amp;lt;&amp;lt;Framework&amp;gt;&amp;gt;" style="shape=folder;fontStyle=1;spacingTop=10;tabWidth=40;tabHeight=14;tabPosition=left;html=1;whiteSpace=wrap;" parent="Kxxd0aBfSA8q7dgwN72d-8" vertex="1">
          <mxGeometry x="10" y="860" width="427.77" height="410" as="geometry" />
        </mxCell>
        <mxCell id="W23P32Y-80gLwB7u09Wh-42" value="" style="group" parent="Kxxd0aBfSA8q7dgwN72d-8" vertex="1" connectable="0">
          <mxGeometry x="290" y="980" width="140" height="180" as="geometry" />
        </mxCell>
        <mxCell id="W23P32Y-80gLwB7u09Wh-19" value="Observer" style="rounded=0;whiteSpace=wrap;html=1;" parent="W23P32Y-80gLwB7u09Wh-42" vertex="1">
          <mxGeometry width="140" height="60" as="geometry" />
        </mxCell>
        <mxCell id="W23P32Y-80gLwB7u09Wh-39" value="+Observer(s: Subject*)&lt;br&gt;+update() = 0: void" style="rounded=0;whiteSpace=wrap;html=1;" parent="W23P32Y-80gLwB7u09Wh-42" vertex="1">
          <mxGeometry y="60" width="140" height="60" as="geometry" />
        </mxCell>
        <mxCell id="W23P32Y-80gLwB7u09Wh-41" value="#getSubject(): Subject*" style="rounded=0;whiteSpace=wrap;html=1;" parent="W23P32Y-80gLwB7u09Wh-42" vertex="1">
          <mxGeometry y="120" width="140" height="60" as="geometry" />
        </mxCell>
        <mxCell id="W23P32Y-80gLwB7u09Wh-45" value="" style="group" parent="Kxxd0aBfSA8q7dgwN72d-8" vertex="1" connectable="0">
          <mxGeometry x="30" y="1080" width="120" height="180" as="geometry" />
        </mxCell>
        <mxCell id="W23P32Y-80gLwB7u09Wh-20" value="Subject" style="rounded=0;whiteSpace=wrap;html=1;" parent="W23P32Y-80gLwB7u09Wh-45" vertex="1">
          <mxGeometry width="120" height="60" as="geometry" />
        </mxCell>
        <mxCell id="W23P32Y-80gLwB7u09Wh-43" value="+Subject()&lt;br&gt;+insert(s: Object*)&lt;br&gt;+remove(s: Object*)" style="rounded=0;whiteSpace=wrap;html=1;" parent="W23P32Y-80gLwB7u09Wh-45" vertex="1">
          <mxGeometry y="60" width="120" height="60" as="geometry" />
        </mxCell>
        <mxCell id="W23P32Y-80gLwB7u09Wh-44" value="#notify(): void" style="rounded=0;whiteSpace=wrap;html=1;" parent="W23P32Y-80gLwB7u09Wh-45" vertex="1">
          <mxGeometry y="120" width="120" height="60" as="geometry" />
        </mxCell>
        <mxCell id="W23P32Y-80gLwB7u09Wh-30" value="Main&lt;br&gt;&amp;lt;&amp;lt;Function&amp;gt;&amp;gt;" style="shape=folder;fontStyle=1;spacingTop=10;tabWidth=40;tabHeight=14;tabPosition=left;html=1;whiteSpace=wrap;" parent="Kxxd0aBfSA8q7dgwN72d-8" vertex="1">
          <mxGeometry x="620" y="10" width="320" height="320" as="geometry" />
        </mxCell>
        <mxCell id="Kxxd0aBfSA8q7dgwN72d-10" style="edgeStyle=orthogonalEdgeStyle;rounded=0;orthogonalLoop=1;jettySize=auto;html=1;exitX=1;exitY=0.5;exitDx=0;exitDy=0;entryX=0;entryY=0.5;entryDx=0;entryDy=0;endArrow=none;endFill=0;" edge="1" parent="Kxxd0aBfSA8q7dgwN72d-8" source="W23P32Y-80gLwB7u09Wh-43" target="W23P32Y-80gLwB7u09Wh-41">
          <mxGeometry relative="1" as="geometry" />
        </mxCell>
        <mxCell id="Kxxd0aBfSA8q7dgwN72d-11" value="0..*" style="edgeLabel;html=1;align=center;verticalAlign=middle;resizable=0;points=[];" vertex="1" connectable="0" parent="Kxxd0aBfSA8q7dgwN72d-10">
          <mxGeometry x="0.8407" y="1" relative="1" as="geometry">
            <mxPoint y="-9" as="offset" />
          </mxGeometry>
        </mxCell>
        <mxCell id="Kxxd0aBfSA8q7dgwN72d-12" value="0..*" style="edgeLabel;html=1;align=center;verticalAlign=middle;resizable=0;points=[];" vertex="1" connectable="0" parent="Kxxd0aBfSA8q7dgwN72d-10">
          <mxGeometry x="-0.8037" y="1" relative="1" as="geometry">
            <mxPoint y="-9" as="offset" />
          </mxGeometry>
        </mxCell>
        <mxCell id="W23P32Y-80gLwB7u09Wh-26" value="Domein Implementatie" style="shape=folder;fontStyle=1;spacingTop=10;tabWidth=40;tabHeight=14;tabPosition=left;html=1;whiteSpace=wrap;" parent="Kxxd0aBfSA8q7dgwN72d-8" vertex="1">
          <mxGeometry x="540" y="390" width="440" height="420" as="geometry" />
        </mxCell>
        <mxCell id="Kxxd0aBfSA8q7dgwN72d-22" value="" style="group" vertex="1" connectable="0" parent="Kxxd0aBfSA8q7dgwN72d-8">
          <mxGeometry x="580" y="465" width="120" height="120" as="geometry" />
        </mxCell>
        <mxCell id="W23P32Y-80gLwB7u09Wh-21" value="MachineIMP" style="rounded=0;whiteSpace=wrap;html=1;" parent="Kxxd0aBfSA8q7dgwN72d-22" vertex="1">
          <mxGeometry width="120" height="60" as="geometry" />
        </mxCell>
        <mxCell id="Kxxd0aBfSA8q7dgwN72d-21" value="+motor1(): Motor*&lt;br&gt;+motor2(): Motor*&lt;br&gt;+run(): void&lt;br&gt;+halt(): void" style="rounded=0;whiteSpace=wrap;html=1;" vertex="1" parent="Kxxd0aBfSA8q7dgwN72d-22">
          <mxGeometry y="60" width="120" height="60" as="geometry" />
        </mxCell>
        <mxCell id="Kxxd0aBfSA8q7dgwN72d-25" value="" style="group" vertex="1" connectable="0" parent="Kxxd0aBfSA8q7dgwN72d-8">
          <mxGeometry x="850" y="420" width="130" height="120" as="geometry" />
        </mxCell>
        <mxCell id="W23P32Y-80gLwB7u09Wh-24" value="TSensorIMP" style="rounded=0;whiteSpace=wrap;html=1;" parent="Kxxd0aBfSA8q7dgwN72d-25" vertex="1">
          <mxGeometry width="130" height="60" as="geometry" />
        </mxCell>
        <mxCell id="Kxxd0aBfSA8q7dgwN72d-24" value="+TSensorIMP()&lt;br&gt;+read(): void&lt;br&gt;+temperatuur(): int" style="rounded=0;whiteSpace=wrap;html=1;" vertex="1" parent="Kxxd0aBfSA8q7dgwN72d-25">
          <mxGeometry y="60" width="130" height="60" as="geometry" />
        </mxCell>
        <mxCell id="Kxxd0aBfSA8q7dgwN72d-30" value="" style="group" vertex="1" connectable="0" parent="Kxxd0aBfSA8q7dgwN72d-8">
          <mxGeometry x="590" y="650" width="140" height="120" as="geometry" />
        </mxCell>
        <mxCell id="W23P32Y-80gLwB7u09Wh-25" value="MoneIMP" style="rounded=0;whiteSpace=wrap;html=1;" parent="Kxxd0aBfSA8q7dgwN72d-30" vertex="1">
          <mxGeometry width="140" height="60" as="geometry" />
        </mxCell>
        <mxCell id="Kxxd0aBfSA8q7dgwN72d-29" value="+tsensor(): TSensor*&lt;br&gt;+start(): void&lt;br&gt;+stop(): void" style="rounded=0;whiteSpace=wrap;html=1;" vertex="1" parent="Kxxd0aBfSA8q7dgwN72d-30">
          <mxGeometry y="60" width="140" height="60" as="geometry" />
        </mxCell>
        <mxCell id="Kxxd0aBfSA8q7dgwN72d-28" value="" style="group" vertex="1" connectable="0" parent="Kxxd0aBfSA8q7dgwN72d-8">
          <mxGeometry x="820" y="650" width="140" height="120" as="geometry" />
        </mxCell>
        <mxCell id="W23P32Y-80gLwB7u09Wh-23" value="MtwoIMP" style="rounded=0;whiteSpace=wrap;html=1;" parent="Kxxd0aBfSA8q7dgwN72d-28" vertex="1">
          <mxGeometry width="140" height="60" as="geometry" />
        </mxCell>
        <mxCell id="Kxxd0aBfSA8q7dgwN72d-27" value="+tsensor(): TSensor*&lt;br&gt;+start(): void&lt;br&gt;+stop(): void" style="rounded=0;whiteSpace=wrap;html=1;" vertex="1" parent="Kxxd0aBfSA8q7dgwN72d-28">
          <mxGeometry y="60" width="140" height="60" as="geometry" />
        </mxCell>
        <mxCell id="W23P32Y-80gLwB7u09Wh-27" value="Domein" style="shape=folder;fontStyle=1;spacingTop=10;tabWidth=40;tabHeight=14;tabPosition=left;html=1;whiteSpace=wrap;" parent="1" vertex="1">
          <mxGeometry x="10" y="380" width="450" height="430" as="geometry" />
        </mxCell>
        <mxCell id="Kxxd0aBfSA8q7dgwN72d-13" style="edgeStyle=orthogonalEdgeStyle;rounded=0;orthogonalLoop=1;jettySize=auto;html=1;entryX=0.75;entryY=1;entryDx=0;entryDy=0;endArrow=block;endFill=0;" edge="1" parent="1" source="W23P32Y-80gLwB7u09Wh-17" target="W23P32Y-80gLwB7u09Wh-32">
          <mxGeometry relative="1" as="geometry">
            <Array as="points">
              <mxPoint x="135" y="720" />
            </Array>
          </mxGeometry>
        </mxCell>
        <mxCell id="W23P32Y-80gLwB7u09Wh-17" value="Mone&lt;br&gt;&amp;lt;&amp;lt;Interface&amp;gt;&amp;gt;" style="rounded=0;whiteSpace=wrap;html=1;" parent="1" vertex="1">
          <mxGeometry x="294" y="710" width="120" height="60" as="geometry" />
        </mxCell>
        <mxCell id="Kxxd0aBfSA8q7dgwN72d-14" style="edgeStyle=orthogonalEdgeStyle;rounded=0;orthogonalLoop=1;jettySize=auto;html=1;entryX=0.429;entryY=1;entryDx=0;entryDy=0;entryPerimeter=0;endArrow=block;endFill=0;" edge="1" parent="1" source="W23P32Y-80gLwB7u09Wh-18" target="W23P32Y-80gLwB7u09Wh-32">
          <mxGeometry relative="1" as="geometry" />
        </mxCell>
        <mxCell id="W23P32Y-80gLwB7u09Wh-18" value="Mtwo&lt;br&gt;&amp;lt;&amp;lt;Interface&amp;gt;&amp;gt;" style="rounded=0;whiteSpace=wrap;html=1;" parent="1" vertex="1">
          <mxGeometry x="29.999999999999986" y="730" width="120" height="60" as="geometry" />
        </mxCell>
        <mxCell id="W23P32Y-80gLwB7u09Wh-29" value="User Interface" style="shape=folder;fontStyle=1;spacingTop=10;tabWidth=40;tabHeight=14;tabPosition=left;html=1;whiteSpace=wrap;" parent="1" vertex="1">
          <mxGeometry x="30" y="20" width="410" height="320" as="geometry" />
        </mxCell>
        <mxCell id="Kxxd0aBfSA8q7dgwN72d-4" style="edgeStyle=orthogonalEdgeStyle;rounded=0;orthogonalLoop=1;jettySize=auto;html=1;exitX=0;exitY=0;exitDx=0;exitDy=167;exitPerimeter=0;entryX=1;entryY=1;entryDx=0;entryDy=0;" edge="1" parent="1" source="W23P32Y-80gLwB7u09Wh-30" target="W23P32Y-80gLwB7u09Wh-37">
          <mxGeometry relative="1" as="geometry">
            <Array as="points">
              <mxPoint x="620" y="150" />
            </Array>
          </mxGeometry>
        </mxCell>
        <mxCell id="Kxxd0aBfSA8q7dgwN72d-5" value="1" style="edgeLabel;html=1;align=center;verticalAlign=middle;resizable=0;points=[];" vertex="1" connectable="0" parent="Kxxd0aBfSA8q7dgwN72d-4">
          <mxGeometry x="0.891" y="-4" relative="1" as="geometry">
            <mxPoint y="-4" as="offset" />
          </mxGeometry>
        </mxCell>
        <mxCell id="W23P32Y-80gLwB7u09Wh-34" value="" style="group" parent="1" vertex="1" connectable="0">
          <mxGeometry x="300" y="527" width="120" height="120" as="geometry" />
        </mxCell>
        <mxCell id="W23P32Y-80gLwB7u09Wh-14" value="Machine&lt;br&gt;&amp;lt;&amp;lt;Interface&amp;gt;&amp;gt;" style="rounded=0;whiteSpace=wrap;html=1;" parent="W23P32Y-80gLwB7u09Wh-34" vertex="1">
          <mxGeometry width="120" height="60" as="geometry" />
        </mxCell>
        <mxCell id="W23P32Y-80gLwB7u09Wh-31" value="+motor1() = 0: Motor*&lt;br&gt;+motor2() = 0: Motor*&lt;br&gt;+run() = 0: void&lt;br&gt;+halt() = 0: void" style="rounded=0;whiteSpace=wrap;html=1;" parent="W23P32Y-80gLwB7u09Wh-34" vertex="1">
          <mxGeometry y="60" width="120" height="60" as="geometry" />
        </mxCell>
        <mxCell id="W23P32Y-80gLwB7u09Wh-35" value="" style="group" parent="1" vertex="1" connectable="0">
          <mxGeometry x="30" y="520" width="140" height="120" as="geometry" />
        </mxCell>
        <mxCell id="W23P32Y-80gLwB7u09Wh-15" value="Motor&lt;br&gt;&amp;lt;&amp;lt;Interface&amp;gt;&amp;gt;" style="rounded=0;whiteSpace=wrap;html=1;" parent="W23P32Y-80gLwB7u09Wh-35" vertex="1">
          <mxGeometry width="140" height="60" as="geometry" />
        </mxCell>
        <mxCell id="W23P32Y-80gLwB7u09Wh-32" value="+tsensor() = 0: TSensor*&lt;br&gt;+start() = 0: void&lt;br&gt;+stop() = 0: void" style="rounded=0;whiteSpace=wrap;html=1;" parent="W23P32Y-80gLwB7u09Wh-35" vertex="1">
          <mxGeometry y="60" width="140" height="60" as="geometry" />
        </mxCell>
        <mxCell id="W23P32Y-80gLwB7u09Wh-36" value="" style="group" parent="1" vertex="1" connectable="0">
          <mxGeometry x="190" y="400" width="130" height="120" as="geometry" />
        </mxCell>
        <mxCell id="W23P32Y-80gLwB7u09Wh-16" value="TSensor&amp;nbsp;&lt;br&gt;&amp;lt;&amp;lt;Interface&amp;gt;&amp;gt;" style="rounded=0;whiteSpace=wrap;html=1;" parent="W23P32Y-80gLwB7u09Wh-36" vertex="1">
          <mxGeometry width="130" height="60" as="geometry" />
        </mxCell>
        <mxCell id="W23P32Y-80gLwB7u09Wh-33" value="+read() = 0: void&lt;br&gt;+temperatuur() = 0: int" style="rounded=0;whiteSpace=wrap;html=1;" parent="W23P32Y-80gLwB7u09Wh-36" vertex="1">
          <mxGeometry y="60" width="130" height="60" as="geometry" />
        </mxCell>
        <mxCell id="W23P32Y-80gLwB7u09Wh-40" value="" style="group" parent="1" vertex="1" connectable="0">
          <mxGeometry x="40" y="90" width="120" height="120" as="geometry" />
        </mxCell>
        <mxCell id="W23P32Y-80gLwB7u09Wh-37" value="MachineWindow" style="rounded=0;whiteSpace=wrap;html=1;" parent="W23P32Y-80gLwB7u09Wh-40" vertex="1">
          <mxGeometry width="120" height="60" as="geometry" />
        </mxCell>
        <mxCell id="W23P32Y-80gLwB7u09Wh-38" value="+update(): void" style="rounded=0;whiteSpace=wrap;html=1;" parent="W23P32Y-80gLwB7u09Wh-40" vertex="1">
          <mxGeometry y="60" width="120" height="60" as="geometry" />
        </mxCell>
        <mxCell id="W23P32Y-80gLwB7u09Wh-46" style="edgeStyle=orthogonalEdgeStyle;rounded=0;orthogonalLoop=1;jettySize=auto;html=1;endArrow=block;endFill=0;" parent="1" source="W23P32Y-80gLwB7u09Wh-37" target="W23P32Y-80gLwB7u09Wh-19" edge="1">
          <mxGeometry relative="1" as="geometry">
            <Array as="points">
              <mxPoint x="-100" y="100" />
              <mxPoint x="-100" y="850" />
              <mxPoint x="270" y="850" />
              <mxPoint x="270" y="1010" />
            </Array>
          </mxGeometry>
        </mxCell>
        <mxCell id="Kxxd0aBfSA8q7dgwN72d-15" style="edgeStyle=orthogonalEdgeStyle;rounded=0;orthogonalLoop=1;jettySize=auto;html=1;exitX=0;exitY=0.5;exitDx=0;exitDy=0;entryX=1;entryY=0.75;entryDx=0;entryDy=0;" edge="1" parent="1" source="W23P32Y-80gLwB7u09Wh-14" target="W23P32Y-80gLwB7u09Wh-15">
          <mxGeometry relative="1" as="geometry">
            <Array as="points">
              <mxPoint x="300" y="565" />
            </Array>
          </mxGeometry>
        </mxCell>
        <mxCell id="Kxxd0aBfSA8q7dgwN72d-16" value="2" style="edgeLabel;html=1;align=center;verticalAlign=middle;resizable=0;points=[];" vertex="1" connectable="0" parent="Kxxd0aBfSA8q7dgwN72d-15">
          <mxGeometry x="0.7343" relative="1" as="geometry">
            <mxPoint x="2" y="-8" as="offset" />
          </mxGeometry>
        </mxCell>
        <mxCell id="Kxxd0aBfSA8q7dgwN72d-17" style="edgeStyle=orthogonalEdgeStyle;rounded=0;orthogonalLoop=1;jettySize=auto;html=1;entryX=0.5;entryY=0;entryDx=0;entryDy=0;endArrow=none;endFill=0;startArrow=classic;startFill=1;" edge="1" parent="1" source="W23P32Y-80gLwB7u09Wh-33" target="W23P32Y-80gLwB7u09Wh-15">
          <mxGeometry relative="1" as="geometry">
            <Array as="points">
              <mxPoint x="100" y="460" />
            </Array>
          </mxGeometry>
        </mxCell>
        <mxCell id="Kxxd0aBfSA8q7dgwN72d-18" value="1" style="edgeLabel;html=1;align=center;verticalAlign=middle;resizable=0;points=[];" vertex="1" connectable="0" parent="Kxxd0aBfSA8q7dgwN72d-17">
          <mxGeometry x="-0.8044" y="-3" relative="1" as="geometry">
            <mxPoint x="-5" y="-7" as="offset" />
          </mxGeometry>
        </mxCell>
        <mxCell id="Kxxd0aBfSA8q7dgwN72d-23" style="edgeStyle=orthogonalEdgeStyle;rounded=0;orthogonalLoop=1;jettySize=auto;html=1;entryX=1;entryY=0.25;entryDx=0;entryDy=0;endArrow=block;endFill=0;" edge="1" parent="1" source="W23P32Y-80gLwB7u09Wh-21" target="W23P32Y-80gLwB7u09Wh-14">
          <mxGeometry relative="1" as="geometry" />
        </mxCell>
        <mxCell id="Kxxd0aBfSA8q7dgwN72d-26" style="edgeStyle=orthogonalEdgeStyle;rounded=0;orthogonalLoop=1;jettySize=auto;html=1;entryX=1;entryY=0.75;entryDx=0;entryDy=0;endArrow=block;endFill=0;" edge="1" parent="1" source="W23P32Y-80gLwB7u09Wh-24" target="W23P32Y-80gLwB7u09Wh-16">
          <mxGeometry relative="1" as="geometry" />
        </mxCell>
        <mxCell id="Kxxd0aBfSA8q7dgwN72d-31" style="edgeStyle=orthogonalEdgeStyle;rounded=0;orthogonalLoop=1;jettySize=auto;html=1;entryX=1;entryY=0.5;entryDx=0;entryDy=0;endArrow=block;endFill=0;" edge="1" parent="1" source="W23P32Y-80gLwB7u09Wh-25" target="W23P32Y-80gLwB7u09Wh-17">
          <mxGeometry relative="1" as="geometry" />
        </mxCell>
        <mxCell id="Kxxd0aBfSA8q7dgwN72d-32" style="edgeStyle=orthogonalEdgeStyle;rounded=0;orthogonalLoop=1;jettySize=auto;html=1;entryX=0.5;entryY=1;entryDx=0;entryDy=0;endArrow=block;endFill=0;" edge="1" parent="1" source="Kxxd0aBfSA8q7dgwN72d-27" target="W23P32Y-80gLwB7u09Wh-18">
          <mxGeometry relative="1" as="geometry">
            <Array as="points">
              <mxPoint x="890" y="830" />
              <mxPoint x="90" y="830" />
            </Array>
          </mxGeometry>
        </mxCell>
        <mxCell id="Kxxd0aBfSA8q7dgwN72d-33" style="edgeStyle=orthogonalEdgeStyle;rounded=0;orthogonalLoop=1;jettySize=auto;html=1;" edge="1" parent="1" source="W23P32Y-80gLwB7u09Wh-38" target="W23P32Y-80gLwB7u09Wh-14">
          <mxGeometry relative="1" as="geometry">
            <Array as="points">
              <mxPoint x="100" y="270" />
              <mxPoint x="360" y="270" />
            </Array>
          </mxGeometry>
        </mxCell>
        <mxCell id="Kxxd0aBfSA8q7dgwN72d-34" value="1" style="edgeLabel;html=1;align=center;verticalAlign=middle;resizable=0;points=[];" vertex="1" connectable="0" parent="Kxxd0aBfSA8q7dgwN72d-33">
          <mxGeometry x="0.9284" relative="1" as="geometry">
            <mxPoint x="10" as="offset" />
          </mxGeometry>
        </mxCell>
        <mxCell id="Kxxd0aBfSA8q7dgwN72d-35" style="edgeStyle=orthogonalEdgeStyle;rounded=0;orthogonalLoop=1;jettySize=auto;html=1;endArrow=block;endFill=0;" edge="1" parent="1" source="W23P32Y-80gLwB7u09Wh-31" target="W23P32Y-80gLwB7u09Wh-20">
          <mxGeometry relative="1" as="geometry">
            <Array as="points">
              <mxPoint x="360" y="670" />
              <mxPoint x="180" y="670" />
              <mxPoint x="180" y="1030" />
              <mxPoint x="90" y="1030" />
            </Array>
          </mxGeometry>
        </mxCell>
      </root>
    </mxGraphModel>
  </diagram>
</mxfile>
